# File produced by Open Asset Import Library (http://www.assimp.sf.net)
# (assimp v3.1.187496374)


mtllib stone_3.mtl

# 98 vertex positions
v  -0.149361 0.00593909 0.00937648
v  -0.145312 0.00607496 0.064362
v  -0.127056 0.0438213 0.0481664
v  -0.132769 -0.0380503 0.0139022
v  -0.138572 -0.0392473 0.0563824
v  -0.131718 0.0460804 0.0136504
v  -0.0932673 0.0673103 0.0495442
v  -0.0916995 0.069481 0.0140803
v  -0.0982933 0.0415344 0.083509
v  -0.0829048 0.0640886 0.0725817
v  -0.0388847 0.100253 0.04985
v  -0.0543216 0.0763245 0.0766203
v  -0.0367268 0.118046 -0.00182279
v  -0.00164628 0.117398 0.0455141
v  -0.00509622 0.0925434 0.0727966
v  -0.00775663 0.0457862 0.109139
v  -0.0700835 0.0478228 0.0967841
v  -0.0631183 0.00353089 0.114956
v  -0.00874927 -0.000394606 0.130614
v  0.0315674 0.0441885 0.105541
v  0.0336649 0.09407 0.0661965
v  0.0365161 -0.00746335 0.121777
v  0.0730749 0.0428874 0.0796651
v  0.0664212 0.078392 0.0617114
v  -0.0472395 -0.0530021 0.114514
v  -0.00205545 -0.0600947 0.136679
v  -0.0455961 -0.0851465 0.0934113
v  -0.00459384 -0.092863 0.114392
v  -0.110355 -0.0375331 0.0890856
v  -0.0972868 -0.05323 0.0746699
v  0.0501788 -0.0587881 0.134465
v  0.0452312 -0.0948187 0.111232
v  -0.00421174 -0.105107 0.0593946
v  -0.048778 -0.0893674 0.0673536
v  -0.106159 -0.0646664 0.0488705
v  -0.0574417 -0.100191 -0.000982798
v  -0.0993085 -0.0814437 -0.00168518
v  -0.115738 0.00032056 0.0986425
v  -0.00378052 -0.114237 -0.02242
v  0.05818 -0.123449 -0.000236183
v  0.063227 -0.112904 0.0571306
v  0.105148 -0.110131 0.00217242
v  0.100378 -0.105001 0.064384
v  0.0920637 -0.0923675 0.0972446
v  0.0922172 -0.0555567 0.111655
v  0.114063 -0.0594868 0.0656643
v  0.121887 -0.0587494 0.00362159
v  0.113371 0.00458077 0.0616307
v  0.0870153 -0.00657137 0.0931069
v  0.091909 0.0552136 0.0442925
v  0.12329 0.00253385 0.00417014
v  0.107986 0.0557311 0.00685647
v  0.0746305 0.0971404 0.00501423
v  0.0698376 0.0949951 0.041546
v  0.0454782 0.114414 0.0423894
v  0.0398612 0.135969 -0.0111716
v  -0.0034608 0.13932 -0.00982095
v  -0.111707 0.023608 -0.0320767
v  -0.128751 -0.00249531 -0.0384809
v  -0.0689488 0.06234 -0.0860603
v  -0.101191 -0.00172693 -0.0666946
v  -0.0596926 0.0886942 -0.0610535
v  -0.121652 -0.040069 -0.0366213
v  -0.0875744 -0.0759342 -0.0356712
v  -0.0959032 -0.0399426 -0.0648269
v  -0.0413465 0.0219584 -0.111257
v  -0.0447456 -0.0594639 -0.103198
v  -0.0730645 -0.0709569 -0.0710803
v  -0.0529011 -0.102401 -0.0550422
v  -0.0511455 -0.0844453 -0.0834583
v  -0.0108354 -0.0580254 -0.105253
v  -0.00233163 -0.101387 -0.0949073
v  -0.00838341 -0.111924 -0.0625337
v  0.000335792 0.0147866 -0.138825
v  -0.00747199 0.0729302 -0.142137
v  -0.0483096 0.06827 -0.117366
v  -0.0446668 0.0982456 -0.103437
v  -0.00534143 0.121124 -0.114696
v  -0.0621842 0.0852945 -0.0863531
v  -0.0377769 0.116062 -0.0628879
v  -0.00179864 0.147519 -0.0626504
v  0.0411354 0.0727642 -0.132159
v  0.0356333 0.0167903 -0.129308
v  0.0484272 -0.0412985 -0.105169
v  0.0652283 0.0854698 -0.0962256
v  0.0434428 0.115689 -0.105014
v  0.0728159 -0.00373286 -0.0978939
v  0.0360855 -0.0866856 -0.0861829
v  0.0831061 -0.0540567 -0.0847486
v  0.077545 -0.0849951 -0.0740168
v  0.0480318 -0.115269 -0.0530882
v  0.104932 0.00573192 -0.0370009
v  0.109409 -0.0611933 -0.0497201
v  0.0925779 -0.0965939 -0.0515343
v  0.0882293 0.0607024 -0.0265554
v  0.0678442 0.109377 -0.0588848
v  0.0431342 0.143916 -0.0622583
v  0.0644367 0.103241 -0.0878511

# 123 UV coordinates
vt 0.715881 0.89872 0
vt 0.68655 0.872277 0
vt 0.705415 0.854772 0
vt 0.680436 0.917608 0
vt 0.670214 0.890151 0
vt 0.729989 0.863269 0
vt 0.705441 0.827397 0
vt 0.733237 0.823614 0
vt 0.682928 0.840255 0
vt 0.689427 0.825308 0
vt 0.694733 0.786674 0
vt 0.682434 0.808364 0
vt 0.727481 0.760255 0
vt 0.682598 0.76141 0
vt 0.668583 0.780531 0
vt 0.647338 0.805968 0
vt 0.67226 0.827135 0
vt 0.651718 0.840311 0
vt 0.630819 0.824052 0
vt 0.632066 0.792516 0
vt 0.652292 0.763001 0
vt 0.613526 0.811486 0
vt 0.614073 0.772777 0
vt 0.630917 0.755494 0
vt 0.627412 0.854843 0
vt 0.610888 0.839891 0
vt 0.615363 0.869122 0
vt 0.601518 0.85301 0
vt 0.656603 0.873089 0
vt 0.646661 0.881568 0
vt 0.596176 0.826606 0
vt 0.58475 0.839956 0
vt 0.584507 0.876756 0
vt 0.61224 0.883185 0
vt 0.648078 0.899169 0
vt 0.599704 0.932229 0
vt 0.637158 0.936709 0
vt 0.66923 0.859262 0
vt 0.549569 0.923937 0
vt 0.52146 0.874292 0
vt 0.556073 0.849065 0
vt 0.508335 0.832821 0
vt 0.552662 0.827555 0
vt 0.569663 0.825678 0
vt 0.581762 0.814478 0
vt 0.559997 0.803052 0
vt 0.515828 0.783814 0
vt 0.579786 0.772597 0
vt 0.592697 0.79272 0
vt 0.606623 0.74665 0
vt 0.549774 0.741619 0
vt 0.591134 0.719742 0
vt 0.635723 0.710517 0
vt 0.636926 0.739576 0
vt 0.657534 0.742165 0
vt 0.683863 0.705899 0
vt 0.71341 0.728447 0
vt 0.153093 0.408048 0
vt 0.162473 0.437265 0
vt 0.125277 0.436543 0
vt 0.1198 0.416819 0
vt 0.136313 0.378827 0
vt 0.158232 0.469386 0
vt 0.0889923 0.473677 0
vt 0.0983312 0.427703 0
vt 0.105217 0.491784 0
vt 0.107596 0.397321 0
vt 0.0998545 0.359566 0
vt 0.0835105 0.378518 0
vt 0.0873493 0.407197 0
vt 0.0597629 0.456154 0
vt 0.0514419 0.412012 0
vt 0.068113 0.395829 0
vt 0.0694491 0.345688 0
vt 0.0549446 0.377539 0
vt 0.0526829 0.395483 0
vt 0.0339556 0.415995 0
vt 0.0280514 0.395266 0
vt 0.0291568 0.377919 0
vt 0.0267264 0.351438 0
vt 0.0315906 0.459125 0
vt 0.0387896 0.494862 0
vt 0.0676039 0.482811 0
vt 0.0770433 0.500377 0
vt 0.0615536 0.526989 0
vt 0.089279 0.488712 0
vt 0.101928 0.51518 0
vt 0.0972502 0.54763 0
vt 0.135091 0.547661 0
vt 0.143675 0.52051 0
vt 0.189402 0.482988 0
vt 0.198992 0.447817 0
vt 0.223516 0.465968 0
vt 0.207454 0.49153 0
vt 0.200509 0.525413 0
vt 0.167949 0.520479 0
vt 0.229948 0.423718 0
vt 0.247239 0.472613 0
vt 0.246896 0.450836 0
vt 0.223412 0.515733 0
vt 0.183947 0.547055 0
vt 0.214341 0.543089 0
vt 0.163932 0.541655 0
vt 0.2044 0.557611 0
vt 0.155166 0.556665 0
vt 0.183186 0.572061 0
vt 0.259931 0.535337 0
vt 0.229309 0.562392 0
vt 0.209883 0.572492 0
vt 0.145464 0.581424 0
vt 0.185905 0.607559 0
vt 0.221335 0.606372 0
vt 0.253715 0.586655 0
vt 0.282074 0.555315 0
vt 0.302595 0.522213 0
vt 0.28213 0.504669 0
vt 0.310917 0.485008 0
vt 0.272117 0.466876 0
vt 0.306201 0.445764 0
vt 0.273414 0.443106 0
vt 0.270491 0.4139 0
vt 0.308558 0.414904 0
vt 0.255165 0.464937 0

# 98 vertex normals
vn -0.972659 0.092073 -0.213207
vn -0.898865 0.165299 0.405856
vn -0.705734 0.649978 0.281901
vn -0.856626 -0.498327 -0.13365
vn -0.809586 -0.524937 0.262701
vn -0.727133 0.658324 -0.194646
vn -0.54609 0.807229 0.223982
vn -0.62164 0.778757 -0.0842669
vn -0.516354 0.54436 0.661098
vn -0.493856 0.730199 0.472141
vn -0.405104 0.821096 0.402109
vn -0.300492 0.728848 0.615212
vn -0.574705 0.809105 0.122737
vn -0.12518 0.855486 0.502467
vn -0.0558953 0.693242 0.718534
vn -0.0380185 0.510608 0.858973
vn -0.323532 0.488814 0.810178
vn -0.30403 0.134739 0.943086
vn -0.0653234 0.218008 0.973758
vn 0.298733 0.455393 0.838675
vn 0.237339 0.650987 0.721032
vn 0.315291 0.286768 0.90463
vn 0.590685 0.415757 0.691547
vn 0.565115 0.533435 0.629359
vn -0.450032 -0.307336 0.83846
vn -0.171826 -0.221875 0.959816
vn -0.471288 -0.754356 0.456984
vn -0.203966 -0.787813 0.581161
vn -0.52456 -0.492634 0.694369
vn -0.465334 -0.740922 0.484251
vn 0.279323 -0.137227 0.950341
vn 0.120554 -0.780237 0.613756
vn -0.189191 -0.963613 0.188831
vn -0.404994 -0.888415 0.216099
vn -0.555902 -0.786622 0.2687
vn -0.370211 -0.926717 0.0643379
vn -0.597764 -0.799657 -0.0568009
vn -0.549 0.0794715 0.832035
vn -0.167159 -0.985859 0.0118056
vn 0.0918016 -0.995639 -0.0165693
vn 0.0577555 -0.969757 0.237139
vn 0.679167 -0.729651 -0.0796308
vn 0.626403 -0.732549 0.266442
vn 0.551163 -0.583706 0.596244
vn 0.681805 -0.00339808 0.731526
vn 0.951166 -0.0880657 0.295851
vn 0.989015 -0.132956 -0.06459
vn 0.875605 0.244159 0.416775
vn 0.630849 0.291702 0.718985
vn 0.801453 0.455564 0.387471
vn 0.98412 0.1463 -0.100518
vn 0.895135 0.445759 -0.00572107
vn 0.788359 0.611075 0.0712541
vn 0.683311 0.629263 0.370291
vn 0.379268 0.790113 0.481536
vn 0.414958 0.884195 0.214498
vn -0.243224 0.944717 0.21989
vn -0.733606 0.516292 -0.441887
vn -0.837226 0.150608 -0.525709
vn -0.849987 0.234714 -0.471626
vn -0.715795 0.0770195 -0.69405
vn -0.803879 0.588644 -0.0853008
vn -0.814706 -0.391716 -0.427566
vn -0.641903 -0.697564 -0.318379
vn -0.690281 -0.301613 -0.657679
vn -0.575994 -0.120856 -0.808471
vn -0.317584 -0.334497 -0.887272
vn -0.690477 -0.491024 -0.531166
vn -0.450769 -0.854186 -0.259178
vn -0.461669 -0.602748 -0.650813
vn -0.0494765 -0.322442 -0.945296
vn 0.0462088 -0.698778 -0.713844
vn -0.106248 -0.956927 -0.27019
vn -0.147287 -0.226837 -0.962731
vn -0.189089 0.198346 -0.961719
vn -0.682075 0.0909921 -0.725599
vn -0.641381 0.587192 -0.493798
vn -0.184138 0.733488 -0.654285
vn -0.869044 0.439143 -0.227849
vn -0.681592 0.724471 -0.10283
vn -0.26815 0.950332 -0.158002
vn 0.536073 0.162711 -0.828342
vn 0.461686 -0.139046 -0.876078
vn 0.320367 -0.333453 -0.886665
vn 0.86435 0.182515 -0.468602
vn 0.473126 0.632082 -0.613697
vn 0.752664 0.00535451 -0.658383
vn 0.231796 -0.566447 -0.790828
vn 0.636605 -0.189051 -0.747659
vn 0.452 -0.506434 -0.734317
vn 0.155982 -0.902596 -0.401235
vn 0.877841 0.203559 -0.433542
vn 0.891778 -0.118281 -0.43674
vn 0.616898 -0.636161 -0.463397
vn 0.883782 0.350322 -0.310169
vn 0.870778 0.475985 -0.123225
vn 0.461443 0.870393 -0.171718
vn 0.840658 0.425908 -0.334511

# Mesh 'Stone_3_Stone.002' with 192 faces
g Stone_3_Stone.002
usemtl Stones
f  1/1/1 2/2/2 3/3/3
f  1/1/1 4/4/4 5/5/5
f  6/6/6 1/1/1 3/3/3
f  2/2/2 1/1/1 5/5/5
f  3/3/3 7/7/7 8/8/8
f  6/6/6 3/3/3 8/8/8
f  3/3/3 2/2/2 9/9/9
f  3/3/3 9/9/9 7/7/7
f  9/9/9 10/10/10 7/7/7
f  8/8/8 7/7/7 11/11/11
f  7/7/7 10/10/10 12/12/12
f  11/11/11 7/7/7 12/12/12
f  13/13/13 8/8/8 11/11/11
f  13/13/13 11/11/11 14/14/14
f  11/11/11 12/12/12 15/15/15
f  14/14/14 11/11/11 15/15/15
f  16/16/16 15/15/15 12/12/12
f  17/17/17 12/12/12 10/10/10
f  17/17/17 16/16/16 12/12/12
f  9/9/9 17/17/17 10/10/10
f  16/16/16 17/17/17 18/18/18
f  18/18/18 17/17/17 9/9/9
f  16/16/16 19/19/19 20/20/20
f  16/16/16 20/20/20 15/15/15
f  19/19/19 16/16/16 18/18/18
f  20/20/20 21/21/21 15/15/15
f  14/14/14 15/15/15 21/21/21
f  19/19/19 22/22/22 20/20/20
f  20/20/20 23/23/23 24/24/24
f  20/20/20 22/22/22 23/23/23
f  21/21/21 20/20/20 24/24/24
f  19/19/19 18/18/18 25/25/25
f  26/26/26 19/19/19 25/25/25
f  19/19/19 26/26/26 22/22/22
f  25/25/25 27/27/27 28/28/28
f  25/25/25 29/29/29 30/30/30
f  26/26/26 25/25/25 28/28/28
f  25/25/25 18/18/18 29/29/29
f  27/27/27 25/25/25 30/30/30
f  26/26/26 31/31/31 22/22/22
f  26/26/26 28/28/28 32/32/32
f  31/31/31 26/26/26 32/32/32
f  33/33/33 28/28/28 27/27/27
f  28/28/28 33/33/33 32/32/32
f  34/34/34 27/27/27 30/30/30
f  34/34/34 33/33/33 27/27/27
f  5/5/5 35/35/35 30/30/30
f  29/29/29 5/5/5 30/30/30
f  35/35/35 34/34/34 30/30/30
f  33/33/33 34/34/34 36/36/36
f  36/36/36 34/34/34 35/35/35
f  4/4/4 37/37/37 35/35/35
f  5/5/5 4/4/4 35/35/35
f  37/37/37 36/36/36 35/35/35
f  2/2/2 5/5/5 29/29/29
f  2/2/2 38/38/38 9/9/9
f  38/38/38 2/2/2 29/29/29
f  18/18/18 38/38/38 29/29/29
f  38/38/38 18/18/18 9/9/9
f  39/39/39 33/33/33 36/36/36
f  39/39/39 40/40/40 33/33/33
f  40/40/40 41/41/41 33/33/33
f  33/33/33 41/41/41 32/32/32
f  40/40/40 42/42/42 41/41/41
f  42/42/42 43/43/43 41/41/41
f  41/41/41 43/43/43 44/44/44
f  32/32/32 41/41/41 44/44/44
f  32/32/32 44/44/44 45/45/45
f  31/31/31 32/32/32 45/45/45
f  46/46/46 45/45/45 44/44/44
f  43/43/43 46/46/46 44/44/44
f  47/47/47 46/46/46 43/43/43
f  42/42/42 47/47/47 43/43/43
f  48/48/48 46/46/46 47/47/47
f  49/49/49 45/45/45 46/46/46
f  48/48/48 49/49/49 46/46/46
f  22/22/22 31/31/31 45/45/45
f  49/49/49 22/22/22 45/45/45
f  22/22/22 49/49/49 23/23/23
f  49/49/49 48/48/48 23/23/23
f  48/48/48 50/50/50 23/23/23
f  48/48/48 51/51/51 50/50/50
f  51/51/51 48/48/48 47/47/47
f  23/23/23 50/50/50 24/24/24
f  51/51/51 52/52/52 50/50/50
f  53/53/53 54/54/54 50/50/50
f  50/50/50 54/54/54 24/24/24
f  52/52/52 53/53/53 50/50/50
f  21/21/21 24/24/24 54/54/54
f  55/55/55 54/54/54 53/53/53
f  55/55/55 21/21/21 54/54/54
f  56/56/56 55/55/55 53/53/53
f  14/14/14 55/55/55 56/56/56
f  55/55/55 14/14/14 21/21/21
f  57/57/57 14/14/14 56/56/56
f  57/57/57 13/13/13 14/14/14
f  1/58/1 6/59/6 58/60/58
f  59/61/59 1/58/1 58/60/58
f  1/58/1 59/61/59 4/62/4
f  6/59/6 8/63/8 58/60/58
f  58/60/58 60/64/60 61/65/61
f  8/63/8 62/66/62 58/60/58
f  59/61/59 58/60/58 61/65/61
f  58/60/58 62/66/62 60/64/60
f  59/61/59 63/67/63 4/62/4
f  59/61/59 61/65/61 63/67/63
f  4/62/4 63/67/63 37/68/37
f  63/67/63 64/69/64 37/68/37
f  61/65/61 65/70/65 63/67/63
f  63/67/63 65/70/65 64/69/64
f  66/71/66 61/65/61 60/64/60
f  67/72/67 65/70/65 61/65/61
f  66/71/66 67/72/67 61/65/61
f  65/70/65 68/73/68 64/69/64
f  65/70/65 67/72/67 68/73/68
f  36/74/36 37/68/37 64/69/64
f  69/75/69 64/69/64 68/73/68
f  69/75/69 36/74/36 64/69/64
f  67/72/67 70/76/70 68/73/68
f  70/76/70 69/75/69 68/73/68
f  71/77/71 67/72/67 66/71/66
f  67/72/67 71/77/71 70/76/70
f  71/77/71 72/78/72 70/76/70
f  73/79/73 69/75/69 70/76/70
f  72/78/72 73/79/73 70/76/70
f  39/80/39 36/74/36 69/75/69
f  73/79/73 39/80/39 69/75/69
f  74/81/74 71/77/71 66/71/66
f  74/81/74 66/71/66 75/82/75
f  66/71/66 76/83/76 75/82/75
f  75/82/75 76/83/76 77/84/77
f  78/85/78 75/82/75 77/84/77
f  76/83/76 60/64/60 79/86/79
f  76/83/76 66/71/66 60/64/60
f  77/84/77 76/83/76 79/86/79
f  78/85/78 77/84/77 80/87/80
f  80/87/80 77/84/77 79/86/79
f  81/88/81 78/85/78 80/87/80
f  57/89/57 81/88/81 80/87/80
f  13/90/13 80/87/80 62/66/62
f  13/90/13 57/89/57 80/87/80
f  62/66/62 80/87/80 79/86/79
f  62/66/62 79/86/79 60/64/60
f  8/63/8 13/90/13 62/66/62
f  74/91/74 75/92/75 82/93/82
f  74/91/74 83/94/83 84/95/84
f  83/94/83 74/91/74 82/93/82
f  71/96/71 74/91/74 84/95/84
f  75/92/75 78/97/78 82/93/82
f  83/94/83 82/93/82 85/98/85
f  78/97/78 86/99/86 82/93/82
f  82/93/82 86/99/86 85/98/85
f  87/100/87 83/94/83 85/98/85
f  83/94/83 87/100/87 84/95/84
f  71/96/71 84/95/84 88/101/88
f  87/100/87 89/102/89 84/95/84
f  84/95/84 89/102/89 88/101/88
f  72/103/72 71/96/71 88/101/88
f  89/102/89 90/104/90 88/101/88
f  73/105/73 72/103/72 88/101/88
f  91/106/91 88/101/88 90/104/90
f  91/106/91 73/105/73 88/101/88
f  92/107/92 93/108/93 89/102/89
f  87/100/87 92/107/92 89/102/89
f  89/102/89 93/108/93 90/104/90
f  93/108/93 94/109/94 90/104/90
f  94/109/94 91/106/91 90/104/90
f  39/110/39 73/105/73 91/106/91
f  40/111/40 91/106/91 94/109/94
f  40/111/40 39/110/39 91/106/91
f  42/112/42 94/109/94 93/108/93
f  42/112/42 40/111/40 94/109/94
f  47/113/47 93/108/93 92/107/92
f  47/113/47 42/112/42 93/108/93
f  51/114/51 47/113/47 92/107/92
f  51/114/51 92/107/92 52/115/52
f  92/107/92 95/116/95 52/115/52
f  52/115/52 95/116/95 53/117/53
f  95/116/95 96/118/96 53/117/53
f  87/100/87 85/98/85 95/116/95
f  92/107/92 87/100/87 95/116/95
f  95/116/95 85/98/85 96/118/96
f  56/119/56 53/117/53 96/118/96
f  56/119/56 97/120/97 81/121/81
f  57/122/57 56/119/56 81/121/81
f  97/120/97 56/119/56 96/118/96
f  81/121/81 97/120/97 86/99/86
f  97/120/97 96/118/96 86/99/86
f  78/97/78 81/121/81 86/99/86
f  86/99/86 98/123/98 85/98/85
f  96/118/96 98/123/98 86/99/86
f  85/98/85 98/123/98 96/118/96

