# File produced by Open Asset Import Library (http://www.assimp.sf.net)
# (assimp v3.1.187496374)


mtllib stone_5.mtl



v  -0.160104 -0.00568652 0.0617029
v  -0.123291 -0.0850446 0.17104
v  -0.0878535 -0.0234235 0.201908
v  -0.148815 0.0684646 0.0748273
v  -0.182358 0.0798334 -0.0346388
v  -0.208571 0.0382203 -0.0608902
v  -0.0674255 -0.0909224 0.259738
v  -0.0472136 -0.0191358 0.275212
v  0.0172256 -0.111863 0.317953
v  -0.0130444 0.0216954 0.264812
v  0.0284505 -0.0137492 0.322479
v  0.12592 -0.101702 0.278218
v  0.137348 -0.00552529 0.300346
v  0.0315999 0.0516026 0.268847
v  -0.056823 0.0911461 0.170985
v  0.116416 0.0954499 0.256901
v  -0.0194118 0.142007 0.169651
v  -0.114078 0.121497 0.0875748
v  0.0218173 0.227512 0.0496729
v  -0.0516448 0.184923 0.0757986
v  0.0810803 0.186827 0.17285
v  -0.139053 0.161915 -0.0211937
v  -0.148186 0.162822 -0.0980372
v  -0.105073 0.195418 -0.0411878
v  -0.0328212 0.209401 -0.0622944
v  -0.0817288 0.166331 -0.155808
v  -0.137128 0.173751 -0.125494
v  -0.179171 0.115621 -0.132922
v  -0.210661 0.0704491 -0.146686
v  -0.158892 0.141992 -0.192015
v  -0.176096 0.0907673 -0.234084
v  -0.123028 0.137519 -0.235771
v  -0.131003 0.0990271 -0.305956
v  -0.041522 0.124926 -0.247852
v  -0.0605201 0.0762838 -0.317993
v  0.0205491 0.0992875 -0.247169
v  0.0180482 0.0580001 -0.300602
v  -0.0139425 0.150493 -0.184884
v  0.0388276 0.121998 -0.195191
v  0.110486 0.0309566 -0.202416
v  0.112683 0.0890088 -0.163864
v  0.0410293 0.188538 -0.10358
v  0.110477 0.202335 -0.00209335
v  0.160076 0.15584 -0.060449
v  0.0997818 0.154008 -0.132002
v  0.188081 0.0106591 -0.124155
v  0.184837 0.0817153 -0.0991956
v  0.178634 0.109664 0.070846
v  0.194149 0.0195636 -0.00188698
v  0.199108 -0.00655229 -0.00957402
v  0.205955 0.0156642 0.130032
v  0.201306 0.0662225 0.133616
v  0.153336 0.159194 0.106628
v  0.177692 0.0809074 0.192139
v  0.192774 -0.0851494 0.198897
v  0.202515 -0.0678385 0.112379
v  0.212018 -0.000673429 0.220951
v  -0.213645 -0.030446 -0.0768568
v  -0.169814 -0.0934224 0.0255576
v  -0.144094 -0.131519 0.139711
v  -0.210075 0.0140793 -0.177758
v  -0.198885 -0.0374136 -0.17362
v  -0.195362 0.0272444 -0.256161
v  -0.173761 -0.0391099 -0.227807
v  -0.13677 0.0300065 -0.322701
v  -0.107881 -0.0438821 -0.289017
v  -0.0852686 -0.123519 -0.203864
v  -0.166272 -0.117441 -0.155786
v  -0.197869 -0.0930156 -0.110742
v  -0.053097 -0.176024 -0.101317
v  -0.130428 -0.191749 -0.0592391
v  -0.0047619 -0.112453 -0.239231
v  0.0462802 -0.163661 -0.138381
v  0.0626537 -0.154573 -0.0166409
v  -0.00786843 -0.182921 0.00945596
v  -0.0891936 -0.203829 0.0616121
v  -0.160639 -0.129096 -0.0111891
v  -0.132627 -0.187355 0.103355
v  -0.0331633 -0.211717 0.158722
v  -0.090183 -0.191645 0.1662
v  -0.0880192 -0.154395 0.216235
v  0.00120043 -0.166807 0.24404
v  0.0508661 -0.185869 0.151318
v  0.103971 -0.174563 0.221299
v  0.118997 -0.137796 0.112947
v  0.169413 -0.134369 0.166833
v  0.151567 -0.111178 0.0712899
v  0.191596 -0.0852965 0.103706
v  0.1632 -0.0551755 -0.0261831
v  0.116121 -0.113898 -0.0328233
v  0.154291 -0.050359 -0.148852
v  0.113144 -0.116748 -0.150884
v  0.0883989 -0.0192317 -0.230889
v  0.0505673 -0.067136 -0.2339
v  0.0154736 -0.0311382 -0.308341
v  0.0291953 0.00365808 -0.318027
v  -0.0282755 0.0230122 -0.328647
v  -0.0301418 -0.0532174 -0.313832

# 116 UV coordinates
vt 0.770727 0.381345 0
vt 0.675904 0.413634 0
vt 0.662229 0.361349 0
vt 0.76673 0.330311 0
vt 0.839567 0.324451 0
vt 0.865559 0.353239 0
vt 0.603724 0.388417 0
vt 0.612553 0.337784 0
vt 0.533461 0.357744 0
vt 0.620452 0.303618 0
vt 0.571311 0.302137 0
vt 0.477242 0.290173 0
vt 0.532094 0.237926 0
vt 0.612933 0.268952 0
vt 0.696244 0.290953 0
vt 0.605938 0.2018 0
vt 0.697976 0.255313 0
vt 0.756786 0.292942 0
vt 0.753023 0.201899 0
vt 0.754222 0.245036 0
vt 0.686789 0.199563 0
vt 0.818726 0.271969 0
vt 0.860548 0.260319 0
vt 0.820789 0.244433 0
vt 0.814775 0.205292 0
vt 0.878435 0.209458 0
vt 0.871447 0.246022 0
vt 0.893618 0.283186 0
vt 0.918504 0.313183 0
vt 0.916971 0.246929 0
vt 0.961558 0.258793 0
vt 0.936609 0.216594 0
vt 0.991123 0.203778 0
vt 0.927202 0.162388 0
vt 0.986156 0.149488 0
vt 0.914976 0.118981 0
vt 0.957113 0.096828 0
vt 0.880185 0.164054 0
vt 0.876334 0.126161 0
vt 0.872796 0.0455731 0
vt 0.841903 0.0818465 0
vt 0.820131 0.16 0
vt 0.758631 0.152716 0
vt 0.773247 0.111843 0
vt 0.821119 0.120342 0
vt 0.796834 0.0166571 0
vt 0.785085 0.0661273 0
vt 0.699581 0.114946 0
vt 0.715902 0.0450275 0
vt 0.7137 0.0259876 0
vt 0.637525 0.0841588 0
vt 0.653917 0.111836 0
vt 0.697945 0.150685 0
vt 0.631111 0.143273 0
vt 0.556562 0.0596722 0
vt 0.614929 0.0307311 0
vt 0.587245 0.111161 0
vt 0.533043 0.157773 0
vt 0.492233 0.0991862 0
vt 0.247152 0.015415 0
vt 0.353143 0.0340341 0
vt 0.332655 0.0802493 0
vt 0.251995 0.0855669 0
vt 0.176009 0.0912673 0
vt 0.149292 0.0588838 0
vt 0.416454 0.0643588 0
vt 0.399031 0.105882 0
vt 0.469588 0.115516 0
vt 0.372181 0.126019 0
vt 0.431334 0.143772 0
vt 0.390495 0.155 0
vt 0.497699 0.177074 0
vt 0.449237 0.190153 0
vt 0.404071 0.202032 0
vt 0.34239 0.201463 0
vt 0.332655 0.154461 0
vt 0.324771 0.123241 0
vt 0.281257 0.203148 0
vt 0.269961 0.159957 0
vt 0.35065 0.246161 0
vt 0.289014 0.256876 0
vt 0.221253 0.256516 0
vt 0.217052 0.2106 0
vt 0.204436 0.156388 0
vt 0.262617 0.115919 0
vt 0.191456 0.125893 0
vt 0.144642 0.165957 0
vt 0.152815 0.134202 0
vt 0.121452 0.115317 0
vt 0.0836517 0.162595 0
vt 0.127927 0.213406 0
vt 0.0716894 0.0874462 0
vt 0.0149898 0.150886 0
vt 0.0778922 0.228386 0
vt 0.134094 0.270205 0
vt 0.014081 0.242524 0
vt 0.0889985 0.28436 0
vt 0.152476 0.303877 0
vt 0.121844 0.329786 0
vt 0.112533 0.34342 0
vt 0.0543047 0.310145 0
vt 0.201147 0.392653 0
vt 0.215812 0.349111 0
vt 0.223866 0.299156 0
vt 0.298394 0.345536 0
vt 0.293723 0.299241 0
vt 0.290023 0.397642 0
vt 0.36701 0.322432 0
vt 0.371851 0.36718 0
vt 0.355536 0.28495 0
vt 0.401291 0.269001 0
vt 0.417317 0.282393 0
vt 0.453988 0.302793 0
vt 0.440998 0.254783 0
vt 0.399252 0.243675 0
vt 0.485512 0.239879 0

# 98 vertex normals
vn -0.924871 0.068154 0.374125
vn -0.858236 0.110885 0.501134
vn -0.804543 0.283367 0.521933
vn -0.861825 0.258553 0.436359
vn -0.890346 0.371156 0.26368
vn -0.951363 0.205325 0.229675
vn -0.702624 -0.147706 0.696062
vn -0.688435 0.346181 0.637351
vn -0.139793 -0.411897 0.900444
vn -0.543507 0.56157 0.62389
vn -0.136986 0.270818 0.952834
vn 0.537679 -0.419885 0.731162
vn 0.459645 0.111915 0.881023
vn -0.26201 0.586217 0.766616
vn -0.649211 0.423061 0.632095
vn 0.26301 0.599634 0.755821
vn -0.459788 0.635703 0.620062
vn -0.70575 0.510184 0.491558
vn -0.0645131 0.987958 0.140629
vn -0.461772 0.804247 0.374104
vn 0.135267 0.847582 0.513136
vn -0.753818 0.610456 0.243106
vn -0.779987 0.623987 0.0475536
vn -0.407678 0.911177 0.0596314
vn -0.0946342 0.976877 -0.191716
vn -0.0405815 0.932136 -0.359827
vn -0.440141 0.877958 -0.188323
vn -0.838914 0.540981 0.0596861
vn -0.950529 0.307921 -0.0409901
vn -0.591169 0.756106 -0.280755
vn -0.809004 0.476654 -0.343966
vn -0.238284 0.875659 -0.420051
vn -0.36043 0.601927 -0.712583
vn 0.199752 0.841644 -0.501731
vn 0.128276 0.514278 -0.847976
vn 0.471333 0.699807 -0.536764
vn 0.515529 0.498214 -0.697146
vn 0.174943 0.864685 -0.470867
vn 0.403989 0.731128 -0.549768
vn 0.727806 0.218525 -0.650035
vn 0.621714 0.428707 -0.655502
vn 0.189036 0.896904 -0.399785
vn 0.465458 0.882149 -0.071854
vn 0.747539 0.624701 -0.225684
vn 0.445445 0.694948 -0.564469
vn 0.911226 -0.0696121 -0.405981
vn 0.886535 0.309914 -0.343524
vn 0.921631 0.383899 -0.0567276
vn 0.977179 0.205029 -0.0555282
vn 0.976403 -0.156299 -0.149021
vn 0.996185 0.0867728 -0.00922999
vn 0.969192 0.235322 0.0727387
vn 0.710427 0.6908 0.134494
vn 0.785886 0.501516 0.361753
vn 0.873019 -0.38186 0.30335
vn 0.960504 -0.272002 -0.0587055
vn 0.928511 0.0643864 0.36568
vn -0.983965 -0.125454 0.126782
vn -0.960289 -0.193403 0.201097
vn -0.905618 -0.18072 0.383661
vn -0.979893 -0.0538533 -0.192119
vn -0.910364 -0.292547 -0.292667
vn -0.893555 -0.0508973 -0.446059
vn -0.711362 -0.500229 -0.493696
vn -0.448076 -0.125306 -0.88517
vn -0.390159 -0.582869 -0.712769
vn -0.257006 -0.814653 -0.519893
vn -0.598589 -0.672256 -0.435618
vn -0.905749 -0.415997 -0.0810267
vn 0.011779 -0.956393 -0.291845
vn -0.441185 -0.886022 -0.14255
vn 0.183612 -0.783837 -0.593201
vn 0.305051 -0.907958 -0.287327
vn 0.43207 -0.89898 -0.0717603
vn 0.265216 -0.953278 -0.14464
vn -0.217513 -0.971584 -0.0933404
vn -0.874197 -0.470407 0.1204
vn -0.697421 -0.706252 0.121707
vn 0.00758576 -0.977261 0.211906
vn -0.472988 -0.784173 0.40169
vn -0.597547 -0.481114 0.641457
vn -0.138817 -0.81863 0.557292
vn 0.331559 -0.942765 -0.0355392
vn 0.384764 -0.873965 0.296887
vn 0.476805 -0.853261 -0.211195
vn 0.674291 -0.738317 -0.014852
vn 0.621916 -0.762746 -0.177312
vn 0.772256 -0.596664 -0.218206
vn 0.802528 -0.565297 -0.190758
vn 0.68868 -0.716306 -0.112358
vn 0.825259 -0.374202 -0.422991
vn 0.658317 -0.656657 -0.367995
vn 0.733411 -0.181098 -0.655219
vn 0.573542 -0.54584 -0.610826
vn 0.440812 -0.452208 -0.775366
vn 0.555034 -0.0289216 -0.831325
vn 0.0832745 0.032813 -0.995986
vn -0.0195272 -0.535108 -0.844558

# Mesh 'Stone_5_Stone.004' with 192 faces
g Stone_5_Stone.004

usemtl Stones

f  1/1/1 2/2/2 3/3/3
f  1/1/1 4/4/4 5/5/5
f  4/4/4 1/1/1 3/3/3
f  6/6/6 1/1/1 5/5/5
f  2/2/2 7/7/7 3/3/3
f  7/7/7 8/8/8 3/3/3
f  7/7/7 9/9/9 8/8/8
f  3/3/3 8/8/8 10/10/10
f  9/9/9 11/11/11 8/8/8
f  8/8/8 11/11/11 10/10/10
f  9/9/9 12/12/12 11/11/11
f  12/12/12 13/13/13 11/11/11
f  11/11/11 14/14/14 10/10/10
f  11/11/11 13/13/13 14/14/14
f  15/15/15 10/10/10 14/14/14
f  15/15/15 3/3/3 10/10/10
f  13/13/13 16/16/16 14/14/14
f  17/17/17 14/14/14 16/16/16
f  17/17/17 15/15/15 14/14/14
f  4/4/4 3/3/3 15/15/15
f  18/18/18 15/15/15 17/17/17
f  18/18/18 4/4/4 15/15/15
f  19/19/19 20/20/20 17/17/17
f  21/21/21 19/19/19 17/17/17
f  21/21/21 17/17/17 16/16/16
f  20/20/20 18/18/18 17/17/17
f  4/4/4 18/18/18 22/22/22
f  18/18/18 20/20/20 22/22/22
f  5/5/5 4/4/4 22/22/22
f  5/5/5 22/22/22 23/23/23
f  20/20/20 24/24/24 22/22/22
f  22/22/22 24/24/24 23/23/23
f  25/25/25 24/24/24 20/20/20
f  19/19/19 25/25/25 20/20/20
f  26/26/26 27/27/27 24/24/24
f  24/24/24 27/27/27 23/23/23
f  25/25/25 26/26/26 24/24/24
f  28/28/28 23/23/23 27/27/27
f  28/28/28 5/5/5 23/23/23
f  6/6/6 5/5/5 28/28/28
f  29/29/29 28/28/28 30/30/30
f  29/29/29 6/6/6 28/28/28
f  30/30/30 28/28/28 27/27/27
f  30/30/30 27/27/27 26/26/26
f  31/31/31 30/30/30 32/32/32
f  32/32/32 30/30/30 26/26/26
f  31/31/31 29/29/29 30/30/30
f  33/33/33 31/31/31 32/32/32
f  33/33/33 32/32/32 34/34/34
f  32/32/32 26/26/26 34/34/34
f  35/35/35 33/33/33 34/34/34
f  34/34/34 36/36/36 37/37/37
f  26/26/26 38/38/38 34/34/34
f  35/35/35 34/34/34 37/37/37
f  34/34/34 38/38/38 36/36/36
f  38/38/38 39/39/39 36/36/36
f  40/40/40 37/37/37 36/36/36
f  41/41/41 36/36/36 39/39/39
f  41/41/41 40/40/40 36/36/36
f  42/42/42 38/38/38 26/26/26
f  38/38/38 42/42/42 39/39/39
f  25/25/25 42/42/42 26/26/26
f  43/43/43 42/42/42 25/25/25
f  44/44/44 45/45/45 42/42/42
f  42/42/42 45/45/45 39/39/39
f  43/43/43 44/44/44 42/42/42
f  45/45/45 41/41/41 39/39/39
f  46/46/46 40/40/40 41/41/41
f  47/47/47 41/41/41 45/45/45
f  47/47/47 46/46/46 41/41/41
f  44/44/44 47/47/47 45/45/45
f  44/44/44 48/48/48 49/49/49
f  47/47/47 44/44/44 49/49/49
f  44/44/44 43/43/43 48/48/48
f  46/46/46 47/47/47 49/49/49
f  50/50/50 46/46/46 49/49/49
f  50/50/50 49/49/49 51/51/51
f  49/49/49 48/48/48 51/51/51
f  48/48/48 52/52/52 51/51/51
f  43/43/43 53/53/53 48/48/48
f  48/48/48 53/53/53 52/52/52
f  51/51/51 52/52/52 54/54/54
f  53/53/53 54/54/54 52/52/52
f  55/55/55 56/56/56 51/51/51
f  56/56/56 50/50/50 51/51/51
f  57/57/57 55/55/55 51/51/51
f  57/57/57 51/51/51 54/54/54
f  57/57/57 54/54/54 16/16/16
f  21/21/21 16/16/16 54/54/54
f  53/53/53 21/21/21 54/54/54
f  19/19/19 21/21/21 53/53/53
f  43/43/43 19/19/19 53/53/53
f  19/19/19 43/43/43 25/25/25
f  13/58/13 57/57/57 16/16/16
f  55/55/55 57/57/57 13/58/13
f  12/59/12 55/55/55 13/58/13
f  1/60/1 6/61/6 58/62/58
f  1/60/1 59/63/59 60/64/60
f  59/63/59 1/60/1 58/62/58
f  2/65/2 1/60/1 60/64/60
f  6/61/6 29/66/29 61/67/61
f  58/62/58 6/61/6 61/67/61
f  29/66/29 31/68/31 61/67/61
f  58/62/58 61/67/61 62/69/62
f  31/68/31 63/70/63 61/67/61
f  64/71/64 62/69/62 61/67/61
f  63/70/63 64/71/64 61/67/61
f  31/68/31 33/72/33 63/70/63
f  33/72/33 65/73/65 63/70/63
f  66/74/66 64/71/64 63/70/63
f  65/73/65 66/74/66 63/70/63
f  67/75/67 68/76/68 64/71/64
f  66/74/66 67/75/67 64/71/64
f  64/71/64 68/76/68 62/69/62
f  68/76/68 69/77/69 62/69/62
f  69/77/69 58/62/58 62/69/62
f  70/78/70 71/79/71 68/76/68
f  67/75/67 70/78/70 68/76/68
f  68/76/68 71/79/71 69/77/69
f  67/75/67 72/80/72 73/81/73
f  70/78/70 67/75/67 73/81/73
f  67/75/67 66/74/66 72/80/72
f  70/78/70 73/81/73 74/82/74
f  70/78/70 75/83/75 71/79/71
f  75/83/75 70/78/70 74/82/74
f  75/83/75 76/84/76 71/79/71
f  71/79/71 77/85/77 69/77/69
f  71/79/71 76/84/76 77/85/77
f  58/62/58 69/77/69 77/85/77
f  59/63/59 58/62/58 77/85/77
f  59/63/59 77/85/77 78/86/78
f  76/84/76 78/86/78 77/85/77
f  76/84/76 79/87/79 80/88/80
f  76/84/76 75/83/75 79/87/79
f  78/86/78 76/84/76 80/88/80
f  60/64/60 78/86/78 80/88/80
f  60/64/60 59/63/59 78/86/78
f  81/89/81 80/88/80 79/87/79
f  81/89/81 60/64/60 80/88/80
f  82/90/82 79/87/79 83/91/83
f  75/83/75 83/91/83 79/87/79
f  82/90/82 81/89/81 79/87/79
f  2/65/2 60/64/60 81/89/81
f  7/92/7 81/89/81 82/90/82
f  7/92/7 2/65/2 81/89/81
f  9/93/9 82/90/82 84/94/84
f  84/94/84 82/90/82 83/91/83
f  9/93/9 7/92/7 82/90/82
f  84/94/84 83/91/83 85/95/85
f  83/91/83 75/83/75 85/95/85
f  12/96/12 84/94/84 86/97/86
f  12/96/12 9/93/9 84/94/84
f  86/97/86 84/94/84 85/95/85
f  85/95/85 87/98/87 88/99/88
f  75/83/75 74/82/74 85/95/85
f  86/97/86 85/95/85 88/99/88
f  85/95/85 74/82/74 87/98/87
f  86/97/86 88/99/88 56/100/56
f  55/101/55 12/96/12 86/97/86
f  55/101/55 86/97/86 56/100/56
f  50/102/50 56/100/56 88/99/88
f  89/103/89 88/99/88 87/98/87
f  89/103/89 50/102/50 88/99/88
f  74/82/74 90/104/90 87/98/87
f  90/104/90 89/103/89 87/98/87
f  74/82/74 73/81/73 90/104/90
f  91/105/91 89/103/89 90/104/90
f  73/81/73 92/106/92 90/104/90
f  92/106/92 91/105/91 90/104/90
f  46/107/46 50/102/50 89/103/89
f  91/105/91 46/107/46 89/103/89
f  91/105/91 93/108/93 40/109/40
f  46/107/46 91/105/91 40/109/40
f  91/105/91 92/106/92 93/108/93
f  92/106/92 94/110/94 93/108/93
f  92/106/92 73/81/73 94/110/94
f  73/81/73 72/80/72 94/110/94
f  93/108/93 94/110/94 95/111/95
f  94/110/94 72/80/72 95/111/95
f  93/108/93 96/112/96 37/113/37
f  40/109/40 93/108/93 37/113/37
f  96/112/96 93/108/93 95/111/95
f  97/114/97 96/112/96 95/111/95
f  72/80/72 98/115/98 95/111/95
f  98/115/98 97/114/97 95/111/95
f  66/74/66 98/115/98 72/80/72
f  97/114/97 98/115/98 66/74/66
f  35/116/35 97/114/97 65/73/65
f  37/113/37 96/112/96 97/114/97
f  65/73/65 97/114/97 66/74/66
f  35/116/35 37/113/37 97/114/97
f  33/72/33 35/116/35 65/73/65

